<svg width="10" height="13" viewBox="0 0 10 13" fill="none" xmlns="http://www.w3.org/2000/svg">
<path fill-rule="evenodd" clip-rule="evenodd" d="M5 12.5007C4.44772 12.5007 4 12.053 4 11.5007L4 1.50073C4 0.948447 4.44772 0.500732 5 0.500732C5.55228 0.500732 6 0.948447 6 1.50073L6 11.5007C6 12.053 5.55228 12.5007 5 12.5007Z" fill="white"/>
<path fill-rule="evenodd" clip-rule="evenodd" d="M4.29289 12.2078C3.90237 11.8173 3.90237 11.1841 4.29289 10.7936L7.66789 7.41863C8.05842 7.0281 8.69158 7.0281 9.08211 7.41863C9.47263 7.80915 9.47263 8.44231 9.08211 8.83284L5.70711 12.2078C5.31658 12.5984 4.68342 12.5984 4.29289 12.2078Z" fill="white"/>
<path fill-rule="evenodd" clip-rule="evenodd" d="M5.70711 12.2078C5.31658 12.5984 4.68342 12.5984 4.29289 12.2078L0.917893 8.83284C0.527369 8.44231 0.527369 7.80915 0.917893 7.41863C1.30842 7.0281 1.94158 7.0281 2.33211 7.41863L5.70711 10.7936C6.09763 11.1841 6.09763 11.8173 5.70711 12.2078Z" fill="white"/>
</svg>
