<svg width="24" height="24" viewBox="0 0 24 24" fill="none" xmlns="http://www.w3.org/2000/svg">
<g opacity="0.5">
<path fill-rule="evenodd" clip-rule="evenodd" d="M17 11C17 8.79086 15.2091 7 13 7C10.7909 7 9 8.79086 9 11C9 13.2091 10.7909 15 13 15C15.2091 15 17 13.2091 17 11ZM13 5C16.3137 5 19 7.68629 19 11C19 14.3137 16.3137 17 13 17C11.7042 17 10.5043 16.5892 9.5235 15.8907L5.7071 19.7071C5.3166 20.0976 4.6834 20.0976 4.2929 19.7071C3.9024 19.3166 3.9024 18.6834 4.2929 18.2929L8.1093 14.4765C7.4108 13.4957 7 12.2958 7 11C7 7.68629 9.6863 5 13 5Z" fill="#2C2C2C"/>
</g>
</svg>
