<svg width="68" height="68" viewBox="0 0 68 68" fill="none" xmlns="http://www.w3.org/2000/svg">
<g opacity="0.3">
<path fill-rule="evenodd" clip-rule="evenodd" d="M34 9.5C20.469 9.5 9.5 20.469 9.5 34C9.5 47.531 20.469 58.5 34 58.5C47.531 58.5 58.5 47.531 58.5 34C58.5 20.469 47.531 9.5 34 9.5ZM7.5 34C7.5 19.3645 19.3645 7.5 34 7.5C48.6355 7.5 60.5 19.3645 60.5 34C60.5 48.6355 48.6355 60.5 34 60.5C19.3645 60.5 7.5 48.6355 7.5 34Z" fill="#2C2C2C"/>
<path fill-rule="evenodd" clip-rule="evenodd" d="M34 20.25C34.5523 20.25 35 20.6977 35 21.25V46.75C35 47.3023 34.5523 47.75 34 47.75C33.4477 47.75 33 47.3023 33 46.75V21.25C33 20.6977 33.4477 20.25 34 20.25Z" fill="#2C2C2C"/>
<path fill-rule="evenodd" clip-rule="evenodd" d="M34.7071 20.5429C35.0976 20.9334 35.0976 21.5666 34.7071 21.9571L25.1446 31.5196C24.7541 31.9101 24.1209 31.9101 23.7304 31.5196C23.3399 31.1291 23.3399 30.4959 23.7304 30.1054L33.2929 20.5429C33.6834 20.1524 34.3166 20.1524 34.7071 20.5429Z" fill="#2C2C2C"/>
<path fill-rule="evenodd" clip-rule="evenodd" d="M33.2929 20.5429C33.6834 20.1524 34.3166 20.1524 34.7071 20.5429L44.2696 30.1054C44.6601 30.4959 44.6601 31.1291 44.2696 31.5196C43.8791 31.9101 43.2459 31.9101 42.8554 31.5196L33.2929 21.9571C32.9024 21.5666 32.9024 20.9334 33.2929 20.5429Z" fill="#2C2C2C"/>
</g>
</svg>
