<svg width="191" height="183" fill="none" xmlns="http://www.w3.org/2000/svg"><g filter="url(#filter0_d_0_309)"><path fill-rule="evenodd" clip-rule="evenodd" d="M50.93 29.88v53.87l41.97 24.036 47.387-28.025v-53.87" fill="#FF9271"/></g><path d="M92.899 53.917v53.869l47.387-28.025v-53.87L92.899 53.918z" fill="#DF5C34"/><path d="M50.93 29.88L99.625 2.126l40.662 23.767L92.9 53.918 50.93 29.88z" fill="#F47B56"/><path fill-rule="evenodd" clip-rule="evenodd" d="M108.22 17.619a25.94 25.94 0 00-14.207-3.13 28.965 28.965 0 00-14.655 4.284 12.692 12.692 0 00-5.266 5.76 8.193 8.193 0 000 6.592 12.127 12.127 0 005.304 5.566 24.895 24.895 0 009.34 3.053c3.613.5 7.282.435 10.876-.193a25.607 25.607 0 009.326-3.36 15.952 15.952 0 002.754-2.13 11.86 11.86 0 001.691-2c.338-.54.614-1.116.82-1.719.143-.375.259-.761.346-1.154.008-.145.008-.29 0-.436l-4.753-.27-.179.809a5.687 5.687 0 01-1.281 2.18 12.353 12.353 0 01-3.062 2.565 20.927 20.927 0 01-11.017 2.925 21.015 21.015 0 01-11.146-2.655c-3.113-1.834-4.714-4.117-4.714-6.683-.026-2.616 1.473-4.87 4.496-6.76a21.67 21.67 0 0111.018-3.167c3.67-.242 7.333.572 10.556 2.347 3.032 1.796 3.664 3.245 1.896 4.348a4.377 4.377 0 01-4.151 0l-8.34-4.912-3.6 2.244 1.282.77h-.705a9.18 9.18 0 00-2.037.346 8.486 8.486 0 00-2.357 1.013 4.49 4.49 0 00-2.562 4.015c.077 1.59 1.101 2.976 3.1 4.156a13.247 13.247 0 006.956 1.757 12.632 12.632 0 006.7-1.77 5.698 5.698 0 002.101-2.065 3.14 3.14 0 00.513-1.552 2.582 2.582 0 00-.18-.68l.974.077c.892.026 1.783-.064 2.652-.27a9.117 9.117 0 002.985-1.18c1.934-1.166 2.754-2.552 2.562-4.142-.192-1.59-1.55-3.117-4.036-4.58zM97.075 25.75a2.744 2.744 0 011.601 2h.052c.013.82-.46 1.57-1.205 1.912a6.092 6.092 0 01-3.254.846 6.541 6.541 0 01-3.394-.86 2.565 2.565 0 01-1.512-2.013 2.283 2.283 0 011.281-2 5.619 5.619 0 013.1-.796 6.58 6.58 0 013.331.91z" fill="#3E2928"/><defs><filter id="filter0_d_0_309" x=".93" y=".892" width="189.355" height="181.895" filterUnits="userSpaceOnUse" color-interpolation-filters="sRGB"><feFlood flood-opacity="0" result="BackgroundImageFix"/><feColorMatrix in="SourceAlpha" values="0 0 0 0 0 0 0 0 0 0 0 0 0 0 0 0 0 0 127 0" result="hardAlpha"/><feOffset dy="25"/><feGaussianBlur stdDeviation="25"/><feColorMatrix values="0 0 0 0 0.209139 0 0 0 0 0.0691446 0 0 0 0 0.478091 0 0 0 0.497159 0"/><feBlend in2="BackgroundImageFix" result="effect1_dropShadow_0_309"/><feBlend in="SourceGraphic" in2="effect1_dropShadow_0_309" result="shape"/></filter></defs></svg>