<svg width="268" height="212" fill="none" xmlns="http://www.w3.org/2000/svg"><path opacity=".099" d="M144.454 210.048L32.667 142.239c-3.56-2.054-6.61-5.419-3.142-7.627l112.184-66.364c1.682-1.07 4.237-1.773 5.951-.75l117.328 69.904c3.559 2.121 4.198 8.028.652 10.169l-106.455 62.37a14.531 14.531 0 01-14.731.107z" fill="#6862E6"/><path d="M143.994 178.096L33.676 112.919c-3.512-1.974-6.523-5.209-3.1-7.331L141.286 41.8c1.66-1.03 4.181-1.705 5.873-.72l115.786 67.189c3.512 2.039 4.142 7.718.643 9.775l-105.056 59.949a14.67 14.67 0 01-14.538.103z" fill="#5B36A0"/><path d="M143.994 175.088L33.676 109.911c-3.512-1.975-6.523-5.209-3.1-7.332l110.71-63.788c1.66-1.029 4.181-1.704 5.873-.72l115.786 67.19c3.512 2.039 4.142 7.717.643 9.775l-105.056 59.949a14.67 14.67 0 01-14.538.103z" fill="#6862E6"/><path d="M153.09 89.094l-21.768 12.418s33.533 20.457 40.39 23.338l12.537-18.007" fill="url(#paint0_linear_301_2)" opacity=".25"/><path d="M145.57 148.67l-21.774-12.393-21.774 12.418s11.34 6.92 22.179 13.274c6.883-4.868 13.772-9.788 21.369-13.299z" fill="url(#paint1_linear_301_2)" opacity=".25"/><path d="M98.658 72.142L84.847 80.02s1.17 7.222 8.028 10.103l18.082-11.576" fill="url(#paint2_linear_301_2)" opacity=".46"/><ellipse cx="105.418" cy="74.155" rx="8.33" ry="5.865" fill="#68E1FD"/><ellipse cx="105.412" cy="70.695" rx="6.24" ry="2.553" fill="#974C26"/><path fill-rule="evenodd" clip-rule="evenodd" d="M105.058 62.984a44.28 44.28 0 01.129 3.454 42.048 42.048 0 01-.232 4.315 46.061 46.061 0 01-1.499-2.219 41.495 41.495 0 01-1.846-3.183 20.97 20.97 0 01-1.344-3.01 25.132 25.132 0 01-1.158-4.38v-.379a22.374 22.374 0 01-.103-1.89 15.905 15.905 0 011.242-6.373 27.49 27.49 0 014.451 10.887c.043.232.083.465.122.701 0-.045.09.425.09.598l.064.585c.03.296.058.594.084.894zm-3.145-9.492h-.007.007zm0 0c.158-.009.317.009.469.052a17.873 17.873 0 00-.469-.502c.033.148.033.302 0 .45z" fill="#999A1C"/><path fill-rule="evenodd" clip-rule="evenodd" d="M109.085 64.348a32.708 32.708 0 01-1.756 2.977c-.779 1.216-1.641 2.386-2.496 3.524-.058-.842-.058-1.717-.058-2.675 0-1.228.051-2.45.167-3.672.08-1.098.245-2.188.496-3.26.262-1.17.608-2.32 1.035-3.441.116-.296.238-.585.36-.875l.033-.102.128-.238c.29-.56.598-1.113.933-1.647a15.925 15.925 0 014.503-4.694c.13 3.968-.6 7.917-2.142 11.575l-.277.643-.251.553-.263.534c-.133.266-.271.532-.412.798zm2.708-10.078c-.043.146-.118.28-.219.393a1.4 1.4 0 01.341.25c-.034-.205-.075-.42-.122-.643z" fill="#999A1C"/><path fill-rule="evenodd" clip-rule="evenodd" d="M109.213 69.151c-.639.374-1.282.72-1.929 1.042-.811.406-1.641.766-2.47 1.113.244-.47.521-.952.829-1.466.406-.643.83-1.287 1.287-1.93a13.21 13.21 0 011.319-1.6 15.796 15.796 0 011.672-1.525l.476-.354.052-.045.147-.09c.341-.206.682-.405 1.036-.585a10.021 10.021 0 013.937-1.087 17.287 17.287 0 01-4.889 5.55l-.36.264-.309.218-.315.2-.483.296zm4.696-4.565a.642.642 0 01-.244.141v.007c.043.08.073.167.09.257a6.3 6.3 0 00.154-.405zm-8.851-1.602a44.28 44.28 0 01.129 3.454 42.048 42.048 0 01-.232 4.315 46.061 46.061 0 01-1.499-2.219 41.495 41.495 0 01-1.846-3.183 20.97 20.97 0 01-1.344-3.01 25.132 25.132 0 01-1.158-4.38v-.379a22.374 22.374 0 01-.103-1.89 15.905 15.905 0 011.242-6.373 27.49 27.49 0 014.451 10.887c.043.232.083.465.122.701 0-.045.09.425.09.598l.064.585c.03.296.058.594.084.894zm-3.145-9.492h-.007.007zm0 0c.158-.009.317.009.469.052a17.873 17.873 0 00-.469-.502c.033.148.033.302 0 .45z" fill="#999A1C"/><path fill-rule="evenodd" clip-rule="evenodd" d="M109.085 64.348a32.708 32.708 0 01-1.756 2.977c-.779 1.216-1.641 2.386-2.496 3.524-.058-.842-.058-1.717-.058-2.675 0-1.228.051-2.45.167-3.672.08-1.098.245-2.188.496-3.26.262-1.17.608-2.32 1.035-3.441.116-.296.238-.585.36-.875l.033-.102.128-.238c.29-.56.598-1.113.933-1.647a15.925 15.925 0 014.503-4.694c.13 3.968-.6 7.917-2.142 11.575l-.277.643-.251.553-.263.534c-.133.266-.271.532-.412.798zm2.708-10.078c-.043.146-.118.28-.219.393a1.4 1.4 0 01.341.25c-.034-.205-.075-.42-.122-.643z" fill="#999A1C"/><path fill-rule="evenodd" clip-rule="evenodd" d="M109.213 69.151c-.639.374-1.282.72-1.929 1.042-.811.406-1.641.766-2.47 1.113.244-.47.521-.952.829-1.466.406-.643.83-1.287 1.287-1.93a13.21 13.21 0 011.319-1.6 15.796 15.796 0 011.672-1.525l.476-.354.052-.045.147-.09c.341-.206.682-.405 1.036-.585a10.021 10.021 0 013.937-1.087 17.287 17.287 0 01-4.889 5.55l-.36.264-.309.218-.315.2-.483.296zm4.696-4.565a.642.642 0 01-.244.141v.007c.043.08.073.167.09.257a6.3 6.3 0 00.154-.405z" fill="#999A1C"/><path d="M161.735 84.245l-12.048 5.788a2.77 2.77 0 00-.193 4.894l28.554 16.656a2.773 2.773 0 003.731-.894l6.941-10.791" fill="#A1482D"/><path d="M227.264 56.328L131.194.984a4.337 4.337 0 00-6.497 3.756v57.575a3.6 3.6 0 001.801 3.12l102.419 59.106a2.322 2.322 0 003.486-2.013V65.19a10.225 10.225 0 00-5.139-8.862z" fill="#F47B56"/><path d="M131.2 5.338l93.169 53.588a6.533 6.533 0 013.274 5.66v43.157a2.359 2.359 0 01-3.531 2.045l-95.015-54.482a2.328 2.328 0 01-1.171-2.02V7.235a2.186 2.186 0 013.274-1.897z" fill="#fff"/><ellipse cx="169.964" cy="84.467" rx="2.026" ry="2.315" transform="rotate(-10.9 169.964 84.467)" fill="#AB643C"/><path opacity=".32" d="M156.242 63.891l43.297 26.007 21.389-12.431-38.216-22.238" fill="url(#paint3_linear_301_2)"/><path d="M209.748 58.714l-46.81-28.534a1.621 1.621 0 00-2.431 1.46v16.257a1.704 1.704 0 00.817 1.467l46.803 27.93a1.615 1.615 0 002.412-1.41l.244-15.157a2.275 2.275 0 00-1.035-2.013z" fill="#E2AC00"/><path d="M198.549 67.08c1.679 2.348 4.631 3.004 6.587 1.474 1.955-1.531 2.18-4.676.501-7.017-1.678-2.34-4.631-3.003-6.587-1.472-1.955 1.53-2.18 4.669-.501 7.016z" fill="#fff"/><path d="M193.956 55.814l-19.092-11.492a.727.727 0 00-.733 1.247l19.092 11.492a.726.726 0 00.733-1.247zm-.785 4.669l-26.315-15.84a.728.728 0 00-.702 1.248l26.284 15.846a.727.727 0 00.733-1.248v-.006z" fill="#F2F2F2"/><path d="M200.408 61.865l-46.784-28.527a1.621 1.621 0 00-2.432 1.46v16.25c-.007.6.3 1.159.811 1.473l46.803 27.93a1.615 1.615 0 002.419-1.44l.244-15.158a2.277 2.277 0 00-1.061-1.988z" fill="#F47B56"/><path d="M189.209 70.232c1.679 2.347 4.631 3.003 6.587 1.473 1.955-1.53 2.18-4.676.501-7.016-1.679-2.341-4.631-3.004-6.587-1.473-1.955 1.53-2.18 4.669-.501 7.016z" fill="#fff"/><path d="M184.616 58.965l-19.105-11.492a.727.727 0 00-.733 1.248l19.092 11.492a.728.728 0 00.733-1.248h.013zm-.791 4.701l-26.309-15.865a.727.727 0 00-.734 1.247l26.316 15.84a.727.727 0 00.733-1.248l-.006.026z" fill="#F2F2F2"/><path d="M188.668 63.782l-46.797-28.528a1.621 1.621 0 00-2.431 1.46v16.25a1.704 1.704 0 00.817 1.467l46.803 27.93a1.615 1.615 0 002.419-1.44l.244-15.159a2.275 2.275 0 00-1.055-1.98z" fill="#68E1FD"/><path d="M188.668 63.782l-46.797-28.528a1.621 1.621 0 00-2.431 1.46v16.25a1.704 1.704 0 00.817 1.467l46.803 27.93a1.615 1.615 0 002.419-1.44l.244-15.159a2.275 2.275 0 00-1.055-1.98z" fill="#68E1FD"/><path d="M177.463 72.148c1.679 2.348 4.631 3.004 6.587 1.473 1.955-1.53 2.18-4.675.502-7.016-1.679-2.34-4.632-3.003-6.587-1.473-1.956 1.53-2.162 4.67-.502 7.016z" fill="#fff"/><path d="M172.87 60.881L153.772 49.39a.727.727 0 00-.734 1.248L172.13 62.13a.727.727 0 00.734-1.248h.006zm-.791 4.676l-26.316-15.84a.727.727 0 00-.733 1.248l26.315 15.84a.727.727 0 00.734-1.248z" fill="#F2F2F2"/><path d="M127.25 62.187a22.765 22.765 0 00-6.632 9.717c-2.328 6.43 3.493 16.939 3.493 16.939l9.057-7.17" fill="#FF8F6F"/><path d="M126.273 147.21l-2.458-1.357.644-3.511s3.66.347 3.981 1.646" fill="#003B94"/><path d="M127.173 147.158c.553-.34 1.132-.643 1.705-.945 1.421-.778 3.473-1.582 4.348-3.042a1.697 1.697 0 00-.116-1.929c-1.286-1.556-4.104 1.003-5.544-.72-.283-.341-.419-5.749-.419-5.749l-5.48 1.479s-.926 10.868-.823 11.537c.102.668 1.987 1.286 1.987 1.286a4.859 4.859 0 001.583-.643c.572-.418.051-5.518.784-4.804.734.714 1.055 3.505 1.055 3.505.305.046.614.054.92.025z" fill="#F47B56"/><path d="M136.738 152.464l-2.457-1.338.643-3.511s3.661.347 3.982 1.646" fill="#003B94"/><path d="M137.665 152.412c.553-.34 1.132-.643 1.704-.945 1.422-.778 3.474-1.582 4.349-3.042a1.697 1.697 0 00-.116-1.929c-1.287-1.556-4.104 1.003-5.545-.72-.283-.341-.418-5.749-.418-5.749l-5.481 1.479s-.932 10.906-.829 11.55c.103.643 1.987 1.286 1.987 1.286a4.859 4.859 0 001.583-.643c.572-.418.051-5.518.784-4.804.734.714 1.055 3.505 1.055 3.505.307.042.619.046.927.012z" fill="#F47B56"/><path d="M118.882 117.133l-1.615 21.588s2.573 3.55 11.199 1.576l.084-14.553m.296-4.335c-.187 1.859 0 22.36 0 22.36s2.386 4.463 12.775 0l-.148-17.421" fill="#3E2928"/><path d="M118.078 124.264c.707.489.952-2.025 1.691-1.594a42.149 42.149 0 008.517 3.755h.064a.585.585 0 01.791.29c1.835.547 3.702.976 5.59 1.286 2.425.386 4.432-1.409 6.922-1.531 0-9.53.045-36.656-4.014-42.444l-12.01-4.038c-.058.99-5.828 7.678-5.686 15.832.161 9.19-1.036 17.859-1.242 20.734-.032.489-.598 7.19-.623 7.71z" fill="#3E2928"/><path d="M138.745 73.068l-1.106 10.933s-8.961.36-12.82-2.303v-9.273" fill="#FF8F6F"/><path d="M150.137 65.872l-.913 1.247A29.997 29.997 0 00150.51 64c.258-.726-.907-1.016-1.164-.289l-.135.373c.111-.386.217-.774.315-1.164a.6.6 0 00-1.164-.29 31.048 31.048 0 01-.907 2.985c.196-.87.338-1.75.424-2.637.078-.765-1.125-.733-1.196 0-.1 1.01-.281 2.01-.54 2.99 0-.343-.032-.686-.097-1.029a.605.605 0 00-.251-.43 4.607 4.607 0 00-.115-.4.606.606 0 00-1.178.18l-.077 4.502c-.218.467-.501.9-.842 1.287.578.4 1.137.83 1.672 1.286.478.403.933.833 1.364 1.286.386-.48.757-.969 1.113-1.466a.628.628 0 00.115-.129 128.777 128.777 0 013.319-4.682c.477-.527-.572-1.112-1.029-.501z" fill="#FFB5A9"/><path d="M133.059 63.1s4.233 1.138 5.95 3.859a48.384 48.384 0 012.837 5.845l3.126-4.855s3.795 1.164 5.3 3.029c0 0-4.502 9.84-8.426 10.682-3.924.842-8.092-5.775-8.092-5.775s-.862 2.765-.695-.187" fill="#FF8F6F"/><path d="M135.748 73.615a8.572 8.572 0 01-2.683-3.82c-.508-1.73.129-3.248.721-4.856a15.66 15.66 0 001.106-4.996c.052-1.685-.141-3.37-.257-5.049a.475.475 0 010-.218c-.566-1.898-1.724-3.505-4.008-3.698-5.911-.502-6.246 6.045-6.201 8.707.046 2.663.329 4.463-1.633 5.576-1.962 1.112-3.377 4.032-1.506 6.392 1.872 2.36.193 1.499-1.055 3.595-1.247 2.096-.926 4.714 1.634 5.66 2.56.945 14.461-.83 15.554-1.93.388-.443.589-1.02.56-1.608a6.24 6.24 0 00-2.232-3.755z" fill="#007F68"/><path fill-rule="evenodd" clip-rule="evenodd" d="M143.235 24.508a9.419 9.419 0 00-1.672-4.887 8.178 8.178 0 00-3.77-3.229 3.518 3.518 0 00-2.534-.128 3.268 3.268 0 00-1.827 1.608 5.542 5.542 0 00-.592 2.9 9.523 9.523 0 00.824 3.453 11.177 11.177 0 001.994 3.113 7.07 7.07 0 002.573 1.89 4.3 4.3 0 001.087.277c.284.038.571.038.855 0a2.45 2.45 0 00.644-.18c.13-.051.257-.111.379-.18l.129-.09-.779-1.447-.257.141a1.719 1.719 0 01-.836.155 3.252 3.252 0 01-1.287-.251 5.932 5.932 0 01-2.746-2.572 7.665 7.665 0 01-1.287-3.859 3.63 3.63 0 011.036-2.971 2.4 2.4 0 012.676-.34 6.093 6.093 0 012.849 2.43 6.955 6.955 0 011.242 3.633c.047 1.317-.24 1.852-.862 1.608a1.126 1.126 0 01-.528-.47 1.414 1.414 0 01-.231-.726l-.129-3.614-1.286-.502v.573l-.116-.206a2.718 2.718 0 00-.463-.508 2.326 2.326 0 00-.701-.438 1.377 1.377 0 00-1.563.245 2.392 2.392 0 00-.599 1.93c.027.864.285 1.705.746 2.436a3.572 3.572 0 001.686 1.512c.298.135.63.175.952.115.192-.028.374-.105.527-.225.061-.066.113-.14.155-.218l.154.302a3 3 0 00.553.7c.243.253.537.45.862.58.533.283 1.19.17 1.595-.277.464-.665.659-1.48.547-2.283zm-4.245-1.267c.042.34-.053.683-.264.952a.643.643 0 01-.746.116 1.726 1.726 0 01-.817-.733 2.406 2.406 0 01-.367-1.196 1.178 1.178 0 01.283-.933.701.701 0 01.791-.103c.331.144.604.392.779.708.213.36.331.77.341 1.19zm80.194 70.901a9.388 9.388 0 00-1.672-4.887 8.192 8.192 0 00-3.692-3.306 3.564 3.564 0 00-2.541-.129 3.294 3.294 0 00-1.827 1.615 5.508 5.508 0 00-.592 2.894 9.52 9.52 0 00.823 3.453 11.256 11.256 0 001.994 3.119 7.087 7.087 0 002.574 1.884 4.29 4.29 0 001.08.283c.286.038.576.038.862 0 .221-.034.437-.095.643-.18.131-.051.258-.111.38-.18l.129-.09-.779-1.447-.257.141a1.782 1.782 0 01-.836.155c-.442 0-.879-.088-1.287-.257a5.957 5.957 0 01-2.779-2.49 7.642 7.642 0 01-1.286-3.858 3.63 3.63 0 011.01-2.99 2.406 2.406 0 012.676-.335 6.103 6.103 0 012.843 2.425 6.987 6.987 0 011.241 3.64c.039 1.318-.225 1.852-.868 1.608a1.126 1.126 0 01-.528-.47 1.457 1.457 0 01-.231-.727l-.129-3.614-1.286-.495v.572l-.122-.205a2.78 2.78 0 00-.464-.515 2.298 2.298 0 00-.701-.437 1.37 1.37 0 00-1.556.244 2.365 2.365 0 00-.599 1.93c.027.867.287 1.71.753 2.443a3.57 3.57 0 001.685 1.518c.296.135.627.173.946.11.193-.027.375-.105.527-.226.059-.067.111-.14.155-.218l.154.302c.15.259.336.495.553.7.245.251.538.448.862.58a1.327 1.327 0 001.596-.277c.463-.665.658-1.48.546-2.283zm-4.239-1.267c.041.34-.057.683-.27.952a.643.643 0 01-.746.11 1.744 1.744 0 01-.817-.74 2.392 2.392 0 01-.367-1.19c-.045-.338.061-.68.29-.933a.701.701 0 01.791-.096c.329.143.601.392.772.707.216.36.336.77.347 1.19z" fill="#F47B56"/><path d="M89.324 116.676L67.55 104.29l-21.768 12.412s12.113 7.562 22.951 13.916c6.883-4.862 13-10.424 20.591-13.942z" fill="url(#paint4_linear_301_2)" opacity=".25"/><g filter="url(#filter0_d_301_2)"><path fill-rule="evenodd" clip-rule="evenodd" d="M50 81.878v26.935l20.984 12.018 23.694-14.013V79.883" fill="#FF9271"/></g><path d="M70.984 93.896v26.935l23.694-14.013V79.883L70.984 93.896z" fill="#DF5C34"/><path d="M50 81.878L74.347 68l20.33 11.883-23.693 14.013L50 81.878z" fill="#F47B56"/><path fill-rule="evenodd" clip-rule="evenodd" d="M78.645 75.747a12.97 12.97 0 00-7.104-1.565c-2.59.046-5.12.785-7.327 2.142a6.346 6.346 0 00-2.633 2.88 4.095 4.095 0 000 3.296 6.063 6.063 0 002.652 2.783 12.449 12.449 0 004.67 1.526 17.59 17.59 0 005.438-.096 12.802 12.802 0 004.663-1.68c.496-.303.958-.66 1.377-1.064.318-.302.601-.637.845-1.001.17-.27.307-.558.41-.86.072-.187.13-.38.173-.577a2.032 2.032 0 000-.218l-2.376-.134-.09.404c-.129.407-.348.78-.64 1.09a6.173 6.173 0 01-1.531 1.283 10.462 10.462 0 01-5.509 1.462 10.508 10.508 0 01-5.573-1.328c-1.556-.917-2.357-2.058-2.357-3.34-.013-1.31.737-2.436 2.248-3.38a10.835 10.835 0 015.51-1.585 9.632 9.632 0 015.277 1.174c1.516.898 1.832 1.623.948 2.174a2.188 2.188 0 01-2.075 0l-4.17-2.456-1.8 1.122.64.385h-.352c-.345.02-.686.077-1.018.173a4.241 4.241 0 00-1.179.507 2.245 2.245 0 00-1.28 2.007c.037.795.55 1.488 1.55 2.078a6.623 6.623 0 003.477.878 6.316 6.316 0 003.35-.885 2.853 2.853 0 001.05-1.032c.153-.231.242-.5.257-.776a1.287 1.287 0 00-.09-.34l.487.038c.446.014.892-.032 1.326-.134a4.556 4.556 0 001.493-.59c.967-.584 1.377-1.276 1.28-2.072-.095-.795-.774-1.558-2.017-2.289zm-5.573 4.066c.416.18.716.555.8 1h.027c.006.41-.23.785-.603.956a3.047 3.047 0 01-1.627.423 3.27 3.27 0 01-1.697-.43 1.283 1.283 0 01-.756-1.007c.01-.427.257-.813.64-1a2.81 2.81 0 011.55-.397c.587 0 1.161.157 1.666.455z" fill="#3E2928"/><defs><linearGradient id="paint0_linear_301_2" x1="152.88" y1="93.03" x2="147.356" y2="109.429" gradientUnits="userSpaceOnUse"><stop stop-color="#78B46A"/><stop offset=".03" stop-color="#7F3500"/><stop offset="1" stop-color="#fff"/></linearGradient><linearGradient id="paint1_linear_301_2" x1="116.638" y1="126.59" x2="107.345" y2="155.86" gradientUnits="userSpaceOnUse"><stop stop-color="#78B46A"/><stop offset=".03" stop-color="#7F3500"/><stop offset="1" stop-color="#fff"/></linearGradient><linearGradient id="paint2_linear_301_2" x1="93.623" y1="65.182" x2="85.025" y2="85.058" gradientUnits="userSpaceOnUse"><stop stop-color="#78B46A"/><stop offset=".03" stop-color="#7F3500"/><stop offset="1" stop-color="#fff"/></linearGradient><linearGradient id="paint3_linear_301_2" x1="214.611" y1="82.957" x2="211.253" y2="74.433" gradientUnits="userSpaceOnUse"><stop stop-color="#fff" stop-opacity=".01"/><stop offset=".99" stop-color="#DC841E"/></linearGradient><linearGradient id="paint4_linear_301_2" x1="60.912" y1="94.437" x2="51.135" y2="123.753" gradientUnits="userSpaceOnUse"><stop stop-color="#78B46A"/><stop offset=".03" stop-color="#7F3500"/><stop offset="1" stop-color="#fff"/></linearGradient><filter id="filter0_d_301_2" x="0" y="54.883" width="144.678" height="140.947" filterUnits="userSpaceOnUse" color-interpolation-filters="sRGB"><feFlood flood-opacity="0" result="BackgroundImageFix"/><feColorMatrix in="SourceAlpha" values="0 0 0 0 0 0 0 0 0 0 0 0 0 0 0 0 0 0 127 0" result="hardAlpha"/><feOffset dy="25"/><feGaussianBlur stdDeviation="25"/><feColorMatrix values="0 0 0 0 0.209139 0 0 0 0 0.0691446 0 0 0 0 0.478091 0 0 0 0.497159 0"/><feBlend in2="BackgroundImageFix" result="effect1_dropShadow_301_2"/><feBlend in="SourceGraphic" in2="effect1_dropShadow_301_2" result="shape"/></filter></defs></svg>