<svg width="419" height="589" fill="none" xmlns="http://www.w3.org/2000/svg"><path opacity=".099" d="M-78.245 642.353l-449.011-265.624c-14.295-8.046-26.548-21.228-12.619-29.877L-89.267 86.89c6.754-4.194 17.017-6.946 23.903-2.936l471.265 273.827c14.296 8.308 16.861 31.45 2.619 39.837L-19.075 641.933a59.64 59.64 0 01-59.17.42z" fill="#6862E6"/><path opacity=".099" d="M-78.245 266.353L-527.256.729c-14.295-8.046-26.548-21.228-12.619-29.877L-89.267-289.11c6.754-4.194 17.018-6.946 23.903-2.936L405.901-18.219c14.296 8.308 16.861 31.45 2.619 39.837L-19.075 265.933a59.64 59.64 0 01-59.17.42z" stroke="#1E1F36"/><path opacity=".099" d="M-78.245 341.353L-527.256 75.729c-14.295-8.046-26.548-21.228-12.619-29.877L-89.267-214.11c6.754-4.194 17.018-6.946 23.903-2.936L405.901 56.781c14.296 8.308 16.861 31.45 2.619 39.837L-19.075 340.933a59.64 59.64 0 01-59.17.42z" stroke="#1E1F36"/><path d="M175.018 425.203L-44.687 295.211c-6.995-3.938-12.99-10.389-6.175-14.622l220.487-127.222c3.305-2.052 8.327-3.399 11.696-1.437l230.595 134.007c6.994 4.066 8.25 15.392 1.281 19.496L203.971 424.998a29.181 29.181 0 01-28.953.205z" fill="#5B36A0"/><path d="M175.018 419.203L-44.687 289.211c-6.995-3.938-12.99-10.389-6.175-14.622l220.487-127.222c3.305-2.052 8.327-3.399 11.696-1.437l230.595 134.007c6.994 4.066 8.25 15.392 1.281 19.496L203.971 418.998a29.181 29.181 0 01-28.953.205z" fill="#6862E6"/><path d="M193.133 247.693l-43.352 24.767s66.783 40.8 80.439 46.546l24.968-35.913" fill="url(#paint0_linear_301_2)" opacity=".25"/><path d="M178.157 366.513l-43.365-24.715-43.364 24.767s22.585 13.801 44.171 26.473c13.708-9.71 27.428-19.521 42.558-26.525z" fill="url(#paint1_linear_301_2)" opacity=".25"/><path d="M84.728 213.883l-27.505 15.712s2.331 14.404 15.988 20.15l36.011-23.087" fill="url(#paint2_linear_301_2)" opacity=".46"/><ellipse cx="98.192" cy="217.898" rx="16.59" ry="11.697" fill="#68E1FD"/><ellipse cx="98.179" cy="210.997" rx="12.427" ry="5.092" fill="#974C26"/><path fill-rule="evenodd" clip-rule="evenodd" d="M97.474 195.619c.18 2.296.257 4.591.257 6.887a84.025 84.025 0 01-.462 8.607 91.196 91.196 0 01-2.985-4.425 82.558 82.558 0 01-3.676-6.349 41.955 41.955 0 01-2.678-6.003 50.195 50.195 0 01-1.96-6.888 34.022 34.022 0 01-.346-1.846v-.757c-.102-1.206-.205-2.488-.205-3.771a31.78 31.78 0 012.473-12.711 54.857 54.857 0 018.865 21.715c.085.462.166.928.243 1.398 0-.09.18.846.18 1.193l.128 1.167c.06.59.115 1.184.166 1.783zm-6.264-18.932h-.013.013zm0 0a2.84 2.84 0 01.935.103c-.307-.342-.62-.675-.935-1 .066.295.066.601 0 .897z" fill="#999A1C"/><path fill-rule="evenodd" clip-rule="evenodd" d="M105.494 198.338a64.809 64.809 0 01-3.498 5.938c-1.55 2.424-3.266 4.759-4.97 7.029-.115-1.68-.115-3.425-.115-5.336 0-2.449.102-4.886.333-7.323a41.99 41.99 0 01.986-6.503 50.156 50.156 0 012.063-6.862c.23-.59.474-1.167.717-1.744l.064-.206.256-.474a46.284 46.284 0 011.858-3.284 31.743 31.743 0 018.967-9.363 54.856 54.856 0 01-4.266 23.087l-.55 1.283-.5 1.103-.525 1.064a68.593 68.593 0 01-.82 1.591zm5.393-20.099a2.07 2.07 0 01-.435.783c.25.132.478.3.679.5-.069-.41-.15-.838-.244-1.283z" fill="#999A1C"/><path fill-rule="evenodd" clip-rule="evenodd" d="M105.75 207.919a65.064 65.064 0 01-3.843 2.078c-1.614.808-3.267 1.526-4.92 2.219a55.418 55.418 0 011.653-2.925 84.46 84.46 0 012.562-3.848 26.51 26.51 0 012.626-3.193 31.534 31.534 0 013.331-3.04l.948-.705.103-.09.294-.18c.679-.41 1.358-.808 2.063-1.167a19.934 19.934 0 017.84-2.168 34.457 34.457 0 01-9.736 11.069l-.717.526-.615.436-.628.398-.961.59zm9.352-9.107a1.284 1.284 0 01-.487.283v.012c.086.161.146.334.179.513.112-.265.214-.534.308-.808zm-17.628-3.193c.18 2.296.257 4.591.257 6.887a84.025 84.025 0 01-.462 8.607 91.196 91.196 0 01-2.985-4.425 82.558 82.558 0 01-3.676-6.349 41.955 41.955 0 01-2.678-6.003 50.195 50.195 0 01-1.96-6.888 34.022 34.022 0 01-.346-1.846v-.757c-.102-1.206-.205-2.488-.205-3.771a31.78 31.78 0 012.473-12.711 54.857 54.857 0 018.865 21.715c.085.462.166.928.243 1.398 0-.09.18.846.18 1.193l.128 1.167c.06.59.115 1.184.166 1.783zm-6.264-18.932h-.013.013zm0 0a2.84 2.84 0 01.935.103c-.307-.342-.62-.675-.935-1 .066.295.066.601 0 .897z" fill="#999A1C"/><path fill-rule="evenodd" clip-rule="evenodd" d="M105.494 198.338a64.809 64.809 0 01-3.498 5.938c-1.55 2.424-3.266 4.759-4.97 7.029-.115-1.68-.115-3.425-.115-5.336 0-2.449.102-4.886.333-7.323a41.99 41.99 0 01.986-6.503 50.156 50.156 0 012.063-6.862c.23-.59.474-1.167.717-1.744l.064-.206.256-.474a46.284 46.284 0 011.858-3.284 31.743 31.743 0 018.967-9.363 54.856 54.856 0 01-4.266 23.087l-.55 1.283-.5 1.103-.525 1.064a68.593 68.593 0 01-.82 1.591zm5.393-20.099a2.07 2.07 0 01-.435.783c.25.132.478.3.679.5-.069-.41-.15-.838-.244-1.283z" fill="#999A1C"/><path fill-rule="evenodd" clip-rule="evenodd" d="M105.75 207.919a65.064 65.064 0 01-3.843 2.078c-1.614.808-3.267 1.526-4.92 2.219a55.418 55.418 0 011.653-2.925 84.46 84.46 0 012.562-3.848 26.51 26.51 0 012.626-3.193 31.534 31.534 0 013.331-3.04l.948-.705.103-.09.294-.18c.679-.41 1.358-.808 2.063-1.167a19.934 19.934 0 017.84-2.168 34.457 34.457 0 01-9.736 11.069l-.717.526-.615.436-.628.398-.961.59zm9.352-9.107a1.284 1.284 0 01-.487.283v.012c.086.161.146.334.179.513.112-.265.214-.534.308-.808z" fill="#999A1C"/><path d="M210.35 238.022l-23.994 11.543a5.527 5.527 0 00-3.125 4.765 5.53 5.53 0 002.74 4.996l56.868 33.219a5.517 5.517 0 007.43-1.782l13.823-21.523" fill="#A1482D"/><path d="M340.854 182.344L149.525 71.962a8.627 8.627 0 00-8.627.01 8.645 8.645 0 00-4.312 7.48v114.833a7.183 7.183 0 003.587 6.22L344.146 318.39a4.62 4.62 0 004.632.003 4.631 4.631 0 002.312-4.018V200.018a20.398 20.398 0 00-10.236-17.674z" fill="#F47B56"/><path d="M149.537 80.646l185.552 106.879a13.034 13.034 0 016.521 11.287v86.076a4.71 4.71 0 01-2.345 4.065 4.697 4.697 0 01-4.688.014L145.348 180.304a4.643 4.643 0 01-2.331-4.027V84.429a4.36 4.36 0 012.171-3.772 4.35 4.35 0 014.349-.011z" fill="#fff"/><ellipse cx="226.738" cy="238.465" rx="4.036" ry="4.617" transform="rotate(-10.9 226.738 238.465)" fill="#AB643C"/><path opacity=".32" d="M199.41 197.427l86.229 51.869 42.596-24.793-76.109-44.353" fill="url(#paint3_linear_301_2)"/><path d="M305.97 187.102l-93.224-56.909a3.224 3.224 0 00-3.278.027 3.233 3.233 0 00-1.565 2.884v32.425a3.402 3.402 0 001.627 2.924l93.212 55.704c.997.567 2.22.56 3.21-.019a3.222 3.222 0 001.594-2.79l.487-30.231a4.541 4.541 0 00-2.063-4.015z" fill="#E2AC00"/><path d="M283.667 203.789c3.343 4.681 9.223 5.99 13.118 2.937 3.894-3.053 4.343-9.324.999-13.993-3.344-4.669-9.224-5.99-13.118-2.937-3.895 3.052-4.343 9.311-.999 13.993z" fill="#fff"/><path d="M274.52 181.318l-38.023-22.921a1.447 1.447 0 00-1.862.579 1.451 1.451 0 00.402 1.91l38.022 22.92a1.45 1.45 0 001.461-2.488zm-1.563 9.311l-52.409-31.59a1.446 1.446 0 00-1.74.658 1.45 1.45 0 00.343 1.83l52.345 31.603a1.45 1.45 0 001.461-2.488v-.013z" fill="#F2F2F2"/><path d="M287.369 193.387l-93.173-56.897a3.232 3.232 0 00-4.843 2.912v32.411a3.4 3.4 0 001.615 2.938l93.211 55.703a3.21 3.21 0 003.248-.025 3.22 3.22 0 001.569-2.848l.487-30.231a4.542 4.542 0 00-2.114-3.963z" fill="#F47B56"/><path d="M265.065 210.074c3.344 4.681 9.224 5.989 13.119 2.937 3.894-3.053 4.342-9.325.999-13.993-3.344-4.669-9.224-5.99-13.118-2.938-3.895 3.053-4.343 9.312-1 13.994z" fill="#fff"/><path d="M255.918 187.602l-38.048-22.92a1.448 1.448 0 00-1.46 2.488l38.022 22.921a1.45 1.45 0 001.461-2.489h.025zm-1.575 9.376l-52.397-31.642a1.448 1.448 0 00-1.862.579 1.451 1.451 0 00.402 1.91l52.409 31.59a1.45 1.45 0 001.46-2.488l-.012.051z" fill="#F2F2F2"/><path d="M263.989 197.209l-93.198-56.896a3.226 3.226 0 00-3.279.027 3.233 3.233 0 00-1.564 2.884v32.412a3.4 3.4 0 001.627 2.924l93.211 55.704c1.008.58 2.25.57 3.249-.026a3.218 3.218 0 001.568-2.847l.487-30.231a4.542 4.542 0 00-2.101-3.951z" fill="#68E1FD"/><path d="M263.989 197.209l-93.198-56.896a3.226 3.226 0 00-3.279.027 3.233 3.233 0 00-1.564 2.884v32.412a3.4 3.4 0 001.627 2.924l93.211 55.704c1.008.58 2.25.57 3.249-.026a3.218 3.218 0 001.568-2.847l.487-30.231a4.542 4.542 0 00-2.101-3.951z" fill="#68E1FD"/><path d="M241.673 213.896c3.343 4.681 9.224 5.99 13.118 2.937 3.895-3.053 4.343-9.325.999-13.993-3.343-4.669-9.224-5.99-13.118-2.937-3.895 3.052-4.304 9.311-.999 13.993z" fill="#fff"/><path d="M232.526 191.425l-38.035-22.921a1.45 1.45 0 00-1.461 2.489l38.023 22.92a1.447 1.447 0 001.862-.578 1.451 1.451 0 00-.402-1.91h.013zm-1.576 9.324l-52.409-31.591a1.447 1.447 0 00-1.862.579 1.451 1.451 0 00.402 1.91l52.409 31.59a1.446 1.446 0 001.862-.578 1.451 1.451 0 00-.402-1.91z" fill="#F2F2F2"/><path d="M141.672 194.028a45.395 45.395 0 00-13.208 19.38c-4.638 12.827 6.956 33.784 6.956 33.784l18.038-14.301" fill="#FF8F6F"/><path d="M139.724 363.602l-4.893-2.706 1.281-7.003s7.289.692 7.93 3.283" fill="#003B94"/><path d="M141.518 363.499c1.102-.679 2.255-1.282 3.395-1.885 2.831-1.552 6.918-3.155 8.66-6.067a3.39 3.39 0 00-.231-3.848c-2.562-3.104-8.173 2.001-11.043-1.436-.563-.68-.832-11.467-.832-11.467l-10.915 2.95s-1.845 21.676-1.64 23.01c.205 1.334 3.959 2.565 3.959 2.565a9.67 9.67 0 003.151-1.282c1.14-.834.102-11.005 1.563-9.581 1.46 1.423 2.101 6.99 2.101 6.99a7.488 7.488 0 001.832.051z" fill="#F47B56"/><path d="M160.568 374.081l-4.894-2.668 1.281-7.003s7.289.693 7.93 3.284" fill="#003B94"/><path d="M162.412 373.978c1.102-.68 2.255-1.282 3.395-1.885 2.831-1.552 6.918-3.155 8.66-6.067a3.39 3.39 0 00-.23-3.848c-2.563-3.104-8.174 2.001-11.043-1.436-.564-.68-.833-11.467-.833-11.467l-10.915 2.95s-1.857 21.753-1.652 23.036c.205 1.282 3.958 2.565 3.958 2.565a9.669 9.669 0 003.152-1.283c1.14-.833.102-11.004 1.563-9.581 1.46 1.424 2.101 6.991 2.101 6.991a7.486 7.486 0 001.844.025z" fill="#F47B56"/><path d="M125.005 303.614l-3.216 43.058s5.125 7.08 22.304 3.142l.166-29.025m.59-8.645c-.372 3.706 0 44.596 0 44.596s4.752 8.901 25.442 0l-.295-34.746" fill="#3E2928"/><path d="M123.403 317.838c1.41.975 1.896-4.04 3.37-3.18a83.733 83.733 0 0016.961 7.49h.128a1.168 1.168 0 011.576.577 89.545 89.545 0 0011.133 2.565c4.829.77 8.826-2.808 13.784-3.052 0-19.008.09-73.109-7.994-84.652l-23.918-8.055c-.115 1.975-11.606 15.314-11.325 31.578.321 18.328-2.062 35.618-2.472 41.351-.064.975-1.191 14.34-1.243 15.378z" fill="#3E2928"/><path d="M164.564 215.73l-2.203 21.804s-17.845.719-25.532-4.591v-18.496" fill="#FF8F6F"/><path d="M187.252 201.378l-1.819 2.488a59.702 59.702 0 002.562-6.221c.513-1.449-1.806-2.026-2.318-.577l-.269.744c.222-.77.431-1.543.627-2.322a1.194 1.194 0 10-2.318-.577 62.377 62.377 0 01-1.807 5.952c.392-1.734.674-3.49.846-5.259.154-1.526-2.242-1.462-2.383 0a37.934 37.934 0 01-1.076 5.964c0-.684-.064-1.368-.192-2.052a1.209 1.209 0 00-.5-.859 9.532 9.532 0 00-.23-.796 1.204 1.204 0 00-2.345.359l-.154 8.979a10.707 10.707 0 01-1.678 2.565 41.339 41.339 0 013.331 2.565 34.458 34.458 0 012.716 2.565 65.078 65.078 0 002.216-2.924c.088-.075.166-.161.231-.257a255.513 255.513 0 016.61-9.337c.948-1.052-1.14-2.219-2.05-1z" fill="#FFB5A9"/><path d="M153.24 195.85s8.429 2.27 11.85 7.695a96.485 96.485 0 015.649 11.659l6.226-9.684s7.559 2.322 10.556 6.042c0 0-8.967 19.623-16.782 21.304-7.814 1.68-16.116-11.518-16.116-11.518s-1.716 5.515-1.383-.372" fill="#FF8F6F"/><path d="M158.595 216.82a17.086 17.086 0 01-5.342-7.618c-1.013-3.451.256-6.478 1.434-9.684a31.236 31.236 0 002.204-9.966c.102-3.36-.282-6.721-.513-10.069a.972.972 0 010-.436c-1.127-3.783-3.433-6.99-7.981-7.375-11.773-1-12.439 12.057-12.349 17.367.089 5.31.653 8.901-3.254 11.12-3.908 2.219-6.726 8.042-2.998 12.749 3.728 4.707.384 2.989-2.101 7.17s-1.845 9.402 3.254 11.287c5.099 1.885 28.799-1.655 30.976-3.848a4.529 4.529 0 001.115-3.206 12.448 12.448 0 00-4.445-7.491z" fill="#007F68"/><path fill-rule="evenodd" clip-rule="evenodd" d="M173.506 118.88a18.81 18.81 0 00-3.33-9.748 16.286 16.286 0 00-7.508-6.438 7 7 0 00-5.047-.257 6.51 6.51 0 00-3.638 3.207 11.06 11.06 0 00-1.179 5.784 19.022 19.022 0 001.64 6.888 22.365 22.365 0 003.971 6.208 14.105 14.105 0 005.125 3.771 8.6 8.6 0 002.165.551 6.389 6.389 0 001.703 0 4.921 4.921 0 001.282-.359c.259-.102.512-.222.755-.359l.257-.18-1.55-2.886-.513.283a3.422 3.422 0 01-1.665.307 6.437 6.437 0 01-2.562-.5 11.818 11.818 0 01-5.471-5.13 15.304 15.304 0 01-2.562-7.696 7.254 7.254 0 012.063-5.926 4.773 4.773 0 015.329-.679 12.134 12.134 0 015.675 4.848 13.888 13.888 0 012.473 7.247c.094 2.625-.479 3.694-1.717 3.206a2.237 2.237 0 01-1.05-.936 2.816 2.816 0 01-.462-1.449l-.256-7.209-2.562-1v1.141l-.231-.41a5.378 5.378 0 00-.922-1.013 4.62 4.62 0 00-1.396-.872 2.737 2.737 0 00-3.113.487 4.775 4.775 0 00-1.192 3.848 9.69 9.69 0 001.486 4.861 7.12 7.12 0 003.357 3.014c.593.269 1.255.35 1.896.231a2.243 2.243 0 001.05-.449c.12-.132.224-.278.308-.436l.307.603c.296.518.667.989 1.102 1.398a4.913 4.913 0 001.716 1.154 2.627 2.627 0 003.178-.551 6.418 6.418 0 001.088-4.554zm-8.455-2.526a2.566 2.566 0 01-.525 1.898c-.393.39-.993.483-1.486.231a3.447 3.447 0 01-1.627-1.463 4.8 4.8 0 01-.73-2.385 2.347 2.347 0 01.563-1.86 1.395 1.395 0 011.576-.205 3.25 3.25 0 011.55 1.411 4.9 4.9 0 01.679 2.373zm159.713 141.407a18.74 18.74 0 00-3.331-9.748 16.312 16.312 0 00-7.354-6.592 7.087 7.087 0 00-5.06-.257 6.566 6.566 0 00-3.638 3.219 11.006 11.006 0 00-1.179 5.772c.11 2.379.667 4.715 1.64 6.888a22.403 22.403 0 003.971 6.22 14.1 14.1 0 005.125 3.759 8.57 8.57 0 002.152.564 6.58 6.58 0 001.717 0 5.663 5.663 0 001.281-.359c.26-.103.512-.223.756-.359l.256-.18-1.55-2.886-.513.282a3.532 3.532 0 01-1.665.308c-.88 0-1.75-.175-2.562-.513a11.867 11.867 0 01-5.535-4.964 15.256 15.256 0 01-2.562-7.695 7.251 7.251 0 012.012-5.964 4.786 4.786 0 015.329-.667 12.154 12.154 0 015.662 4.835 13.953 13.953 0 012.473 7.26c.077 2.629-.449 3.694-1.73 3.206a2.242 2.242 0 01-1.05-.936 2.9 2.9 0 01-.461-1.449l-.257-7.209-2.562-.987v1.141l-.243-.41a5.557 5.557 0 00-.923-1.026 4.576 4.576 0 00-1.396-.872 2.724 2.724 0 00-3.1.487 4.721 4.721 0 00-1.192 3.848 9.66 9.66 0 001.499 4.874 7.119 7.119 0 003.357 3.027 3.08 3.08 0 001.883.218 2.185 2.185 0 001.05-.449c.118-.134.221-.28.308-.436l.307.602c.299.517.67.988 1.102 1.399a5.052 5.052 0 001.717 1.154 2.637 2.637 0 003.177-.552 6.42 6.42 0 001.089-4.553zm-8.443-2.527a2.567 2.567 0 01-.538 1.899 1.28 1.28 0 01-1.486.218 3.478 3.478 0 01-1.627-1.475 4.759 4.759 0 01-.73-2.373 2.321 2.321 0 01.577-1.86 1.394 1.394 0 011.575-.192 3.2 3.2 0 011.538 1.411c.431.718.669 1.535.691 2.372z" fill="#F47B56"/><path d="M66.139 302.704l-43.365-24.703-43.351 24.754s24.122 15.083 45.709 27.756c13.707-9.697 25.89-20.791 41.007-27.807z" fill="url(#paint4_linear_301_2)" opacity=".25"/><defs><linearGradient id="paint0_linear_301_2" x1="192.715" y1="255.543" x2="181.685" y2="288.24" gradientUnits="userSpaceOnUse"><stop stop-color="#78B46A"/><stop offset=".03" stop-color="#7F3500"/><stop offset="1" stop-color="#fff"/></linearGradient><linearGradient id="paint1_linear_301_2" x1="120.536" y1="322.477" x2="101.981" y2="380.838" gradientUnits="userSpaceOnUse"><stop stop-color="#78B46A"/><stop offset=".03" stop-color="#7F3500"/><stop offset="1" stop-color="#fff"/></linearGradient><linearGradient id="paint2_linear_301_2" x1="74.7" y1="200.002" x2="57.536" y2="239.625" gradientUnits="userSpaceOnUse"><stop stop-color="#78B46A"/><stop offset=".03" stop-color="#7F3500"/><stop offset="1" stop-color="#fff"/></linearGradient><linearGradient id="paint3_linear_301_2" x1="315.656" y1="235.452" x2="308.951" y2="218.459" gradientUnits="userSpaceOnUse"><stop stop-color="#fff" stop-opacity=".01"/><stop offset=".99" stop-color="#DC841E"/></linearGradient><linearGradient id="paint4_linear_301_2" x1="9.555" y1="258.349" x2="-9.967" y2="316.801" gradientUnits="userSpaceOnUse"><stop stop-color="#78B46A"/><stop offset=".03" stop-color="#7F3500"/><stop offset="1" stop-color="#fff"/></linearGradient></defs></svg>