<svg width="16" height="16" viewBox="0 0 16 16" fill="none" xmlns="http://www.w3.org/2000/svg">
<path fill-rule="evenodd" clip-rule="evenodd" d="M5.80482 4.86189C5.54447 4.60154 5.12236 4.60154 4.86201 4.86189C4.60166 5.12224 4.60166 5.54435 4.86201 5.8047L7.05728 7.99996L4.86201 10.1952C4.60166 10.4556 4.60166 10.8777 4.86201 11.138C5.12236 11.3984 5.54447 11.3984 5.80482 11.138L8.00008 8.94276L10.1953 11.138C10.4557 11.3984 10.8778 11.3984 11.1381 11.138C11.3985 10.8777 11.3985 10.4556 11.1381 10.1952L8.94288 7.99996L11.1381 5.8047C11.3985 5.54435 11.3985 5.12224 11.1381 4.86189C10.8778 4.60154 10.4557 4.60154 10.1953 4.86189L8.00008 7.05716L5.80482 4.86189ZM5.33342 5.33329L5.09771 5.56899Z" fill="white"/>
</svg>
