<svg width="9" height="9" viewBox="0 0 9 9" fill="none" xmlns="http://www.w3.org/2000/svg">
<path fill-rule="evenodd" clip-rule="evenodd" d="M8.35355 1.35355C8.54881 1.15829 8.54881 0.841707 8.35355 0.646445C8.15829 0.451183 7.8417 0.451183 7.64644 0.646445L0.646443 7.64644C0.451181 7.84171 0.451181 8.15829 0.646443 8.35355C0.841705 8.54881 1.15829 8.54881 1.35355 8.35355L8.35355 1.35355ZM8.35355 4.35355C8.54881 4.15829 8.54881 3.84171 8.35355 3.64644C8.15829 3.45118 7.84171 3.45118 7.64644 3.64644L3.64644 7.64644C3.45118 7.84171 3.45118 8.15829 3.64644 8.35355C3.8417 8.54881 4.15829 8.54881 4.35355 8.35355L8.35355 4.35355Z" fill="#FF3E1D"/>
</svg>
