<svg width="9" height="9" viewBox="0 0 9 9" fill="none" xmlns="http://www.w3.org/2000/svg">
<path fill-rule="evenodd" clip-rule="evenodd" d="M8.35355 1.35355C8.54881 1.15829 8.54881 0.841709 8.35355 0.646447C8.15829 0.451184 7.84171 0.451184 7.64645 0.646447L0.646447 7.64645C0.451184 7.84171 0.451184 8.15829 0.646447 8.35355C0.841709 8.54882 1.15829 8.54882 1.35355 8.35355L8.35355 1.35355ZM8.35355 4.35355C8.54882 4.15829 8.54882 3.84171 8.35355 3.64645C8.15829 3.45118 7.84171 3.45118 7.64645 3.64645L3.64645 7.64645C3.45118 7.84171 3.45118 8.15829 3.64645 8.35355C3.84171 8.54882 4.15829 8.54882 4.35355 8.35355L8.35355 4.35355Z" fill="#FF3E1D"/>
</svg>
